<?xml version="1.0" encoding="UTF-8"?><svg xmlns="http://www.w3.org/2000/svg" xmlns:xlink="http://www.w3.org/1999/xlink" fill-opacity="1" color-rendering="auto" color-interpolation="auto" text-rendering="auto" stroke="black" stroke-linecap="square" width="1016" stroke-miterlimit="10" shape-rendering="auto" stroke-opacity="1" fill="black" stroke-dasharray="none" font-weight="normal" stroke-width="1" height="625" font-family="'Dialog'" font-style="normal" stroke-linejoin="miter" font-size="12px" stroke-dashoffset="0" image-rendering="auto">
  <!--Generated by ySVG 2.5-->
  <defs id="genericDefs"/>
  <g>
    <defs id="defs1">
      <clipPath clipPathUnits="userSpaceOnUse" id="clipPath1">
        <path d="M0 0 L1016 0 L1016 625 L0 625 L0 0 Z"/>
      </clipPath>
      <clipPath clipPathUnits="userSpaceOnUse" id="clipPath2">
        <path d="M-421 -318 L595 -318 L595 307 L-421 307 L-421 -318 Z"/>
      </clipPath>
    </defs>
    <g fill="white" text-rendering="geometricPrecision" shape-rendering="geometricPrecision" transform="translate(421,318)" stroke="white">
      <rect x="-421" width="1016" height="625" y="-318" clip-path="url(#clipPath2)" stroke="none"/>
    </g>
    <g text-rendering="geometricPrecision" stroke-miterlimit="1.45" shape-rendering="geometricPrecision" transform="matrix(1,0,0,1,421,318)" stroke-linecap="butt">
      <rect fill="none" x="-251.6" width="160" height="24" y="-224.738" clip-path="url(#clipPath2)"/>
      <text x="-189.393" font-size="16px" y="-206.4529" clip-path="url(#clipPath2)" font-family="sans-serif" stroke="none" xml:space="preserve">Input</text>
    </g>
    <g transform="matrix(1,0,0,1,421,318)" fill-opacity="0.6" fill="rgb(0,98,255)" text-rendering="geometricPrecision" shape-rendering="geometricPrecision" stroke="rgb(0,98,255)" stroke-opacity="0.6">
      <rect x="-251.6" width="160" height="24" y="-136.738" clip-path="url(#clipPath2)" stroke="none"/>
    </g>
    <g text-rendering="geometricPrecision" stroke-miterlimit="1.45" shape-rendering="geometricPrecision" transform="matrix(1,0,0,1,421,318)" stroke-linecap="butt">
      <rect fill="none" x="-251.6" width="160" height="24" y="-136.738" clip-path="url(#clipPath2)"/>
      <text x="-192.9399" font-size="16px" y="-118.4528" clip-path="url(#clipPath2)" font-family="sans-serif" stroke="none" xml:space="preserve">RELU</text>
    </g>
    <g transform="matrix(1,0,0,1,421,318)" fill-opacity="0.1961" fill="rgb(0,98,255)" text-rendering="geometricPrecision" shape-rendering="geometricPrecision" stroke="rgb(0,98,255)" stroke-opacity="0.1961">
      <rect x="-251.6" width="160" height="24" y="-92.738" clip-path="url(#clipPath2)" stroke="none"/>
    </g>
    <g text-rendering="geometricPrecision" stroke-miterlimit="1.45" shape-rendering="geometricPrecision" transform="matrix(1,0,0,1,421,318)" stroke-linecap="butt">
      <rect fill="none" x="-251.6" width="160" height="24" y="-92.738" clip-path="url(#clipPath2)"/>
      <text x="-200.061" font-size="16px" y="-74.4528" clip-path="url(#clipPath2)" font-family="sans-serif" stroke="none" xml:space="preserve">Dropout</text>
    </g>
    <g transform="matrix(1,0,0,1,421,318)" fill-opacity="0.9098" fill="rgb(0,98,255)" text-rendering="geometricPrecision" shape-rendering="geometricPrecision" stroke="rgb(0,98,255)" stroke-opacity="0.9098">
      <rect x="-251.6" width="160" height="24" y="-180.738" clip-path="url(#clipPath2)" stroke="none"/>
    </g>
    <g text-rendering="geometricPrecision" stroke-miterlimit="1.45" shape-rendering="geometricPrecision" transform="matrix(1,0,0,1,421,318)" stroke-linecap="butt">
      <rect fill="none" x="-251.6" width="160" height="24" y="-180.738" clip-path="url(#clipPath2)"/>
      <text x="-210.2758" font-size="16px" y="-162.4529" clip-path="url(#clipPath2)" font-family="sans-serif" stroke="none" xml:space="preserve">GCN Conv</text>
    </g>
    <g transform="matrix(1,0,0,1,421,318)" fill-opacity="0.9098" fill="rgb(0,98,255)" text-rendering="geometricPrecision" shape-rendering="geometricPrecision" stroke="rgb(0,98,255)" stroke-opacity="0.9098">
      <rect x="-251.6" width="160" height="24" y="223.7819" clip-path="url(#clipPath2)" stroke="none"/>
    </g>
    <g text-rendering="geometricPrecision" stroke-miterlimit="1.45" shape-rendering="geometricPrecision" transform="matrix(1,0,0,1,421,318)" stroke-linecap="butt">
      <rect fill="none" x="-251.6" width="160" height="24" y="223.7819" clip-path="url(#clipPath2)"/>
      <text x="-210.2758" font-size="16px" y="242.0671" clip-path="url(#clipPath2)" font-family="sans-serif" stroke="none" xml:space="preserve">GCN Conv</text>
      <rect fill="none" x="-251.6" width="160" height="24" y="267.7819" clip-path="url(#clipPath2)"/>
      <text x="-195.6157" font-size="16px" y="286.0671" clip-path="url(#clipPath2)" font-family="sans-serif" stroke="none" xml:space="preserve">Output</text>
      <rect fill="none" x="-11.2" width="160" height="24" y="-224.738" clip-path="url(#clipPath2)"/>
      <text x="51.007" font-size="16px" y="-206.4529" clip-path="url(#clipPath2)" font-family="sans-serif" stroke="none" xml:space="preserve">Input</text>
    </g>
    <g transform="matrix(1,0,0,1,421,318)" fill-opacity="0.6" fill="rgb(0,98,255)" text-rendering="geometricPrecision" shape-rendering="geometricPrecision" stroke="rgb(0,98,255)" stroke-opacity="0.6">
      <rect x="-11.2" width="160" height="24" y="-136.738" clip-path="url(#clipPath2)" stroke="none"/>
    </g>
    <g text-rendering="geometricPrecision" stroke-miterlimit="1.45" shape-rendering="geometricPrecision" transform="matrix(1,0,0,1,421,318)" stroke-linecap="butt">
      <rect fill="none" x="-11.2" width="160" height="24" y="-136.738" clip-path="url(#clipPath2)"/>
      <text x="47.4602" font-size="16px" y="-118.4528" clip-path="url(#clipPath2)" font-family="sans-serif" stroke="none" xml:space="preserve">RELU</text>
    </g>
    <g transform="matrix(1,0,0,1,421,318)" fill-opacity="0.1961" fill="rgb(0,98,255)" text-rendering="geometricPrecision" shape-rendering="geometricPrecision" stroke="rgb(0,98,255)" stroke-opacity="0.1961">
      <rect x="-11.2" width="160" height="24" y="-92.738" clip-path="url(#clipPath2)" stroke="none"/>
    </g>
    <g text-rendering="geometricPrecision" stroke-miterlimit="1.45" shape-rendering="geometricPrecision" transform="matrix(1,0,0,1,421,318)" stroke-linecap="butt">
      <rect fill="none" x="-11.2" width="160" height="24" y="-92.738" clip-path="url(#clipPath2)"/>
      <text x="40.3391" font-size="16px" y="-74.4528" clip-path="url(#clipPath2)" font-family="sans-serif" stroke="none" xml:space="preserve">Dropout</text>
    </g>
    <g transform="matrix(1,0,0,1,421,318)" fill-opacity="0.9098" fill="rgb(0,98,255)" text-rendering="geometricPrecision" shape-rendering="geometricPrecision" stroke="rgb(0,98,255)" stroke-opacity="0.9098">
      <rect x="-11.2" width="160" height="24" y="-180.738" clip-path="url(#clipPath2)" stroke="none"/>
    </g>
    <g text-rendering="geometricPrecision" stroke-miterlimit="1.45" shape-rendering="geometricPrecision" transform="matrix(1,0,0,1,421,318)" stroke-linecap="butt">
      <rect fill="none" x="-11.2" width="160" height="24" y="-180.738" clip-path="url(#clipPath2)"/>
      <text x="30.1242" font-size="16px" y="-162.4529" clip-path="url(#clipPath2)" font-family="sans-serif" stroke="none" xml:space="preserve">GCN Conv</text>
    </g>
    <g transform="matrix(1,0,0,1,421,318)" fill-opacity="0.9098" fill="rgb(0,98,255)" text-rendering="geometricPrecision" shape-rendering="geometricPrecision" stroke="rgb(0,98,255)" stroke-opacity="0.9098">
      <rect x="-11.2" width="160" height="24" y="-48.738" clip-path="url(#clipPath2)" stroke="none"/>
    </g>
    <g text-rendering="geometricPrecision" stroke-miterlimit="1.45" shape-rendering="geometricPrecision" transform="matrix(1,0,0,1,421,318)" stroke-linecap="butt">
      <rect fill="none" x="-11.2" width="160" height="24" y="-48.738" clip-path="url(#clipPath2)"/>
      <text x="30.1242" font-size="16px" y="-30.4528" clip-path="url(#clipPath2)" font-family="sans-serif" stroke="none" xml:space="preserve">GCN Conv</text>
    </g>
    <g transform="matrix(1,0,0,1,421,318)" fill-opacity="0.6" fill="rgb(0,98,255)" text-rendering="geometricPrecision" shape-rendering="geometricPrecision" stroke="rgb(0,98,255)" stroke-opacity="0.6">
      <rect x="-11.2" width="160" height="24" y="-4.738" clip-path="url(#clipPath2)" stroke="none"/>
    </g>
    <g text-rendering="geometricPrecision" stroke-miterlimit="1.45" shape-rendering="geometricPrecision" transform="matrix(1,0,0,1,421,318)" stroke-linecap="butt">
      <rect fill="none" x="-11.2" width="160" height="24" y="-4.738" clip-path="url(#clipPath2)"/>
      <text x="47.4602" font-size="16px" y="13.5472" clip-path="url(#clipPath2)" font-family="sans-serif" stroke="none" xml:space="preserve">RELU</text>
    </g>
    <g transform="matrix(1,0,0,1,421,318)" fill-opacity="0.1961" fill="rgb(0,98,255)" text-rendering="geometricPrecision" shape-rendering="geometricPrecision" stroke="rgb(0,98,255)" stroke-opacity="0.1961">
      <rect x="-11.2" width="160" height="24" y="39.262" clip-path="url(#clipPath2)" stroke="none"/>
    </g>
    <g text-rendering="geometricPrecision" stroke-miterlimit="1.45" shape-rendering="geometricPrecision" transform="matrix(1,0,0,1,421,318)" stroke-linecap="butt">
      <rect fill="none" x="-11.2" width="160" height="24" y="39.262" clip-path="url(#clipPath2)"/>
      <text x="40.3391" font-size="16px" y="57.5472" clip-path="url(#clipPath2)" font-family="sans-serif" stroke="none" xml:space="preserve">Dropout</text>
    </g>
    <g transform="matrix(1,0,0,1,421,318)" fill-opacity="0.9098" fill="rgb(0,98,255)" text-rendering="geometricPrecision" shape-rendering="geometricPrecision" stroke="rgb(0,98,255)" stroke-opacity="0.9098">
      <rect x="-11.2" width="160" height="24" y="223.7819" clip-path="url(#clipPath2)" stroke="none"/>
    </g>
    <g text-rendering="geometricPrecision" stroke-miterlimit="1.45" shape-rendering="geometricPrecision" transform="matrix(1,0,0,1,421,318)" stroke-linecap="butt">
      <rect fill="none" x="-11.2" width="160" height="24" y="223.7819" clip-path="url(#clipPath2)"/>
      <text x="30.1242" font-size="16px" y="242.0671" clip-path="url(#clipPath2)" font-family="sans-serif" stroke="none" xml:space="preserve">GCN Conv</text>
      <rect fill="none" x="-11.2" width="160" height="24" y="267.7819" clip-path="url(#clipPath2)"/>
      <text x="44.7844" font-size="16px" y="286.0671" clip-path="url(#clipPath2)" font-family="sans-serif" stroke="none" xml:space="preserve">Output</text>
      <rect fill="none" x="229.2" width="160" height="24" y="-224.738" clip-path="url(#clipPath2)"/>
      <text x="291.407" font-size="16px" y="-206.4529" clip-path="url(#clipPath2)" font-family="sans-serif" stroke="none" xml:space="preserve">Input</text>
    </g>
    <g transform="matrix(1,0,0,1,421,318)" fill-opacity="0.6" fill="rgb(0,98,255)" text-rendering="geometricPrecision" shape-rendering="geometricPrecision" stroke="rgb(0,98,255)" stroke-opacity="0.6">
      <rect x="229.2" width="160" height="24" y="-136.738" clip-path="url(#clipPath2)" stroke="none"/>
    </g>
    <g text-rendering="geometricPrecision" stroke-miterlimit="1.45" shape-rendering="geometricPrecision" transform="matrix(1,0,0,1,421,318)" stroke-linecap="butt">
      <rect fill="none" x="229.2" width="160" height="24" y="-136.738" clip-path="url(#clipPath2)"/>
      <text x="287.8602" font-size="16px" y="-118.4528" clip-path="url(#clipPath2)" font-family="sans-serif" stroke="none" xml:space="preserve">RELU</text>
    </g>
    <g transform="matrix(1,0,0,1,421,318)" fill-opacity="0.1961" fill="rgb(0,98,255)" text-rendering="geometricPrecision" shape-rendering="geometricPrecision" stroke="rgb(0,98,255)" stroke-opacity="0.1961">
      <rect x="229.2" width="160" height="24" y="-92.738" clip-path="url(#clipPath2)" stroke="none"/>
    </g>
    <g text-rendering="geometricPrecision" stroke-miterlimit="1.45" shape-rendering="geometricPrecision" transform="matrix(1,0,0,1,421,318)" stroke-linecap="butt">
      <rect fill="none" x="229.2" width="160" height="24" y="-92.738" clip-path="url(#clipPath2)"/>
      <text x="280.7391" font-size="16px" y="-74.4528" clip-path="url(#clipPath2)" font-family="sans-serif" stroke="none" xml:space="preserve">Dropout</text>
    </g>
    <g transform="matrix(1,0,0,1,421,318)" fill-opacity="0.9098" fill="rgb(0,98,255)" text-rendering="geometricPrecision" shape-rendering="geometricPrecision" stroke="rgb(0,98,255)" stroke-opacity="0.9098">
      <rect x="229.2" width="160" height="24" y="-180.738" clip-path="url(#clipPath2)" stroke="none"/>
    </g>
    <g text-rendering="geometricPrecision" stroke-miterlimit="1.45" shape-rendering="geometricPrecision" transform="matrix(1,0,0,1,421,318)" stroke-linecap="butt">
      <rect fill="none" x="229.2" width="160" height="24" y="-180.738" clip-path="url(#clipPath2)"/>
      <text x="270.5242" font-size="16px" y="-162.4529" clip-path="url(#clipPath2)" font-family="sans-serif" stroke="none" xml:space="preserve">GCN Conv</text>
    </g>
    <g transform="matrix(1,0,0,1,421,318)" fill-opacity="0.6" fill="rgb(0,98,255)" text-rendering="geometricPrecision" shape-rendering="geometricPrecision" stroke="rgb(0,98,255)" stroke-opacity="0.6">
      <rect x="309.2" width="160" height="24" y="77.262" clip-path="url(#clipPath2)" stroke="none"/>
    </g>
    <g text-rendering="geometricPrecision" stroke-miterlimit="1.45" shape-rendering="geometricPrecision" transform="matrix(1,0,0,1,421,318)" stroke-linecap="butt">
      <rect fill="none" x="309.2" width="160" height="24" y="77.262" clip-path="url(#clipPath2)"/>
      <text x="367.8602" font-size="16px" y="95.5472" clip-path="url(#clipPath2)" font-family="sans-serif" stroke="none" xml:space="preserve">RELU</text>
    </g>
    <g transform="matrix(1,0,0,1,421,318)" fill-opacity="0.1961" fill="rgb(0,98,255)" text-rendering="geometricPrecision" shape-rendering="geometricPrecision" stroke="rgb(0,98,255)" stroke-opacity="0.1961">
      <rect x="309.2" width="160" height="24" y="121.262" clip-path="url(#clipPath2)" stroke="none"/>
    </g>
    <g text-rendering="geometricPrecision" stroke-miterlimit="1.45" shape-rendering="geometricPrecision" transform="matrix(1,0,0,1,421,318)" stroke-linecap="butt">
      <rect fill="none" x="309.2" width="160" height="24" y="121.262" clip-path="url(#clipPath2)"/>
      <text x="360.7391" font-size="16px" y="139.5471" clip-path="url(#clipPath2)" font-family="sans-serif" stroke="none" xml:space="preserve">Dropout</text>
    </g>
    <g transform="matrix(1,0,0,1,421,318)" fill-opacity="0.9098" fill="rgb(0,98,255)" text-rendering="geometricPrecision" shape-rendering="geometricPrecision" stroke="rgb(0,98,255)" stroke-opacity="0.9098">
      <rect x="309.2" width="160" height="24" y="33.262" clip-path="url(#clipPath2)" stroke="none"/>
    </g>
    <g text-rendering="geometricPrecision" stroke-miterlimit="1.45" shape-rendering="geometricPrecision" transform="matrix(1,0,0,1,421,318)" stroke-linecap="butt">
      <rect fill="none" x="309.2" width="160" height="24" y="33.262" clip-path="url(#clipPath2)"/>
      <text x="350.5242" font-size="16px" y="51.5472" clip-path="url(#clipPath2)" font-family="sans-serif" stroke="none" xml:space="preserve">GCN Conv</text>
      <rect x="-260.8" y="-193.138" clip-path="url(#clipPath2)" fill="none" width="178.4" stroke-dasharray="6,2" height="136.8"/>
      <rect fill="none" x="-405.8" width="98.8" height="24" y="-136.738" clip-path="url(#clipPath2)"/>
      <text x="-395.9625" font-size="16px" y="-118.4528" clip-path="url(#clipPath2)" font-family="sans-serif" stroke="none" xml:space="preserve">GCN Block</text>
      <rect fill="none" x="-251.6" width="160" height="24" y="-302.0444" clip-path="url(#clipPath2)"/>
      <text x="-201.8344" font-size="16px" y="-283.7593" clip-path="url(#clipPath2)" font-family="sans-serif" stroke="none" xml:space="preserve">SkipfNet</text>
      <rect fill="none" x="229.2" width="160" height="24" y="-302.0444" clip-path="url(#clipPath2)"/>
      <text x="233.5945" font-size="16px" y="-283.7593" clip-path="url(#clipPath2)" font-family="sans-serif" stroke="none" xml:space="preserve">Graph resnet depth 2</text>
      <circle fill="none" r="15" clip-path="url(#clipPath2)" cx="389.2" cy="-29.738"/>
      <text x="380.4402" font-size="30px" y="-17.9533" clip-path="url(#clipPath2)" font-family="sans-serif" stroke="none" xml:space="preserve">+</text>
    </g>
    <g transform="matrix(1,0,0,1,421,318)" fill-opacity="0.9098" fill="rgb(0,98,255)" text-rendering="geometricPrecision" shape-rendering="geometricPrecision" stroke="rgb(0,98,255)" stroke-opacity="0.9098">
      <rect x="389.2" width="160" height="24" y="223.7819" clip-path="url(#clipPath2)" stroke="none"/>
    </g>
    <g text-rendering="geometricPrecision" stroke-miterlimit="1.45" shape-rendering="geometricPrecision" transform="matrix(1,0,0,1,421,318)" stroke-linecap="butt">
      <rect fill="none" x="389.2" width="160" height="24" y="223.7819" clip-path="url(#clipPath2)"/>
      <text x="430.5242" font-size="16px" y="242.0671" clip-path="url(#clipPath2)" font-family="sans-serif" stroke="none" xml:space="preserve">GCN Conv</text>
      <rect fill="none" x="389.2" width="160" height="24" y="267.7819" clip-path="url(#clipPath2)"/>
      <text x="445.1844" font-size="16px" y="286.0671" clip-path="url(#clipPath2)" font-family="sans-serif" stroke="none" xml:space="preserve">Output</text>
      <circle fill="none" r="15" clip-path="url(#clipPath2)" cx="469.2" cy="184.7819"/>
      <text x="460.4402" font-size="30px" y="196.5666" clip-path="url(#clipPath2)" font-family="sans-serif" stroke="none" xml:space="preserve">+</text>
      <rect x="294.3344" y="-1.138" clip-path="url(#clipPath2)" fill="none" width="224.1587" stroke-dasharray="6,2" height="209.2912"/>
      <rect fill="none" x="457.6251" width="122.2329" height="24" y="-63.6418" clip-path="url(#clipPath2)"/>
      <text x="462.2728" font-size="16px" y="-45.3567" clip-path="url(#clipPath2)" font-family="sans-serif" stroke="none" xml:space="preserve">Graph res block</text>
      <rect fill="none" x="-11.2" width="160" height="24" y="-302.0444" clip-path="url(#clipPath2)"/>
      <text x="31.8937" font-size="16px" y="-283.7593" clip-path="url(#clipPath2)" font-family="sans-serif" stroke="none" xml:space="preserve">SkipfNet 2</text>
      <path fill="none" d="M-171.6 -112.738 L-171.6 -101.7771" stroke-width="2" clip-path="url(#clipPath2)"/>
      <path d="M-171.6 -92.7771 L-165.975 -106.2771 L-171.6 -102.9021 L-177.225 -106.2771 Z" stroke-width="2" clip-path="url(#clipPath2)" stroke="none"/>
      <path fill="none" d="M-171.6 -200.738 L-171.6 -189.7771" stroke-width="2" clip-path="url(#clipPath2)"/>
      <path d="M-171.6 -180.7771 L-165.975 -194.2771 L-171.6 -190.9021 L-177.225 -194.2771 Z" stroke-width="2" clip-path="url(#clipPath2)" stroke="none"/>
      <path fill="none" d="M-171.6 -156.738 L-171.6 -145.7771" stroke-width="2" clip-path="url(#clipPath2)"/>
      <path d="M-171.6 -136.7771 L-165.975 -150.2771 L-171.6 -146.9021 L-177.225 -150.2771 Z" stroke-width="2" clip-path="url(#clipPath2)" stroke="none"/>
      <path fill="none" d="M-171.6 -68.738 L-171.6 214.7462" stroke-width="2" clip-path="url(#clipPath2)"/>
      <path d="M-171.6 223.7462 L-165.975 210.2462 L-171.6 213.6212 L-177.225 210.2462 Z" stroke-width="2" clip-path="url(#clipPath2)" stroke="none"/>
      <path fill="none" d="M-251.6482 -212.738 L-276.262 -212.738 L-286.6 -202.4 L-286.6 235.7819 L-260.6342 235.7819" stroke-width="2" clip-path="url(#clipPath2)" stroke="navy"/>
      <path fill="navy" d="M-251.6342 235.7819 L-265.1342 230.1569 L-261.7592 235.7819 L-265.1342 241.4069 Z" stroke-width="2" clip-path="url(#clipPath2)" stroke="none"/>
      <path fill="none" d="M-171.6 247.7819 L-171.6 258.7429" stroke-width="2" clip-path="url(#clipPath2)"/>
      <path d="M-171.6 267.7429 L-165.975 254.2429 L-171.6 257.6179 L-177.225 254.2429 Z" stroke-width="2" clip-path="url(#clipPath2)" stroke="none"/>
      <path fill="none" d="M68.8 -112.738 L68.8 -101.7771" stroke-width="2" clip-path="url(#clipPath2)"/>
      <path d="M68.8 -92.7771 L74.425 -106.2771 L68.8 -102.9021 L63.175 -106.2771 Z" stroke-width="2" clip-path="url(#clipPath2)" stroke="none"/>
      <path fill="none" d="M68.8 -200.738 L68.8 -189.7771" stroke-width="2" clip-path="url(#clipPath2)"/>
      <path d="M68.8 -180.7771 L74.425 -194.2771 L68.8 -190.9021 L63.175 -194.2771 Z" stroke-width="2" clip-path="url(#clipPath2)" stroke="none"/>
      <path fill="none" d="M68.8 -156.738 L68.8 -145.7771" stroke-width="2" clip-path="url(#clipPath2)"/>
      <path d="M68.8 -136.7771 L74.425 -150.2771 L68.8 -146.9021 L63.175 -150.2771 Z" stroke-width="2" clip-path="url(#clipPath2)" stroke="none"/>
      <path fill="none" d="M68.8 -68.738 L68.8 -57.7771" stroke-width="2" clip-path="url(#clipPath2)"/>
      <path d="M68.8 -48.7771 L74.425 -62.2771 L68.8 -58.9021 L63.175 -62.2771 Z" stroke-width="2" clip-path="url(#clipPath2)" stroke="none"/>
      <path fill="none" d="M68.8 -24.738 L68.8 -13.7771" stroke-width="2" clip-path="url(#clipPath2)"/>
      <path d="M68.8 -4.7771 L74.425 -18.2771 L68.8 -14.9021 L63.175 -18.2771 Z" stroke-width="2" clip-path="url(#clipPath2)" stroke="none"/>
      <path fill="none" d="M68.8 19.262 L68.8 30.2229" stroke-width="2" clip-path="url(#clipPath2)"/>
      <path d="M68.8 39.2229 L74.425 25.7229 L68.8 29.0979 L63.175 25.7229 Z" stroke-width="2" clip-path="url(#clipPath2)" stroke="none"/>
      <path fill="none" d="M68.8 63.262 L68.8 214.7427" stroke-width="2" clip-path="url(#clipPath2)"/>
      <path d="M68.8 223.7427 L74.425 210.2427 L68.8 213.6177 L63.175 210.2427 Z" stroke-width="2" clip-path="url(#clipPath2)" stroke="none"/>
      <path fill="none" d="M-11.2489 -212.738 L-36.262 -212.738 L-46.2 -202.8 L-46.2 235.7819 L-20.2342 235.7819" stroke-width="2" clip-path="url(#clipPath2)" stroke="navy"/>
      <path fill="navy" d="M-11.2342 235.7819 L-24.7342 230.1569 L-21.3592 235.7819 L-24.7342 241.4069 Z" stroke-width="2" clip-path="url(#clipPath2)" stroke="none"/>
      <path fill="none" d="M68.8 247.7819 L68.8 258.7429" stroke-width="2" clip-path="url(#clipPath2)"/>
      <path d="M68.8 267.7429 L74.425 254.2429 L68.8 257.6179 L63.175 254.2429 Z" stroke-width="2" clip-path="url(#clipPath2)" stroke="none"/>
      <path fill="none" d="M309.2 -112.738 L309.2 -101.7771" stroke-width="2" clip-path="url(#clipPath2)"/>
      <path d="M309.2 -92.7771 L314.825 -106.2771 L309.2 -102.9021 L303.575 -106.2771 Z" stroke-width="2" clip-path="url(#clipPath2)" stroke="none"/>
      <path fill="none" d="M309.2 -200.738 L309.2 -189.7771" stroke-width="2" clip-path="url(#clipPath2)"/>
      <path d="M309.2 -180.7771 L314.825 -194.2771 L309.2 -190.9021 L303.575 -194.2771 Z" stroke-width="2" clip-path="url(#clipPath2)" stroke="none"/>
      <path fill="none" d="M309.2 -156.738 L309.2 -145.7771" stroke-width="2" clip-path="url(#clipPath2)"/>
      <path d="M309.2 -136.7771 L314.825 -150.2771 L309.2 -146.9021 L303.575 -150.2771 Z" stroke-width="2" clip-path="url(#clipPath2)" stroke="none"/>
      <path fill="none" d="M389.2 101.262 L389.2 112.2229" stroke-width="2" clip-path="url(#clipPath2)"/>
      <path d="M389.2 121.2229 L394.825 107.7229 L389.2 111.0979 L383.575 107.7229 Z" stroke-width="2" clip-path="url(#clipPath2)" stroke="none"/>
      <path fill="none" d="M389.2 57.262 L389.2 68.2229" stroke-width="2" clip-path="url(#clipPath2)"/>
      <path d="M389.2 77.2229 L394.825 63.7229 L389.2 67.0979 L383.575 63.7229 Z" stroke-width="2" clip-path="url(#clipPath2)" stroke="none"/>
      <path fill="none" stroke-dasharray="6,2" d="M-307 -124.738 L-260.8 -124.738" clip-path="url(#clipPath2)"/>
      <path fill="none" d="M389.2 -212.738 L422.4584 -212.738 L433.8 -199.2 L433.8 -29.738 L413.2 -29.738" stroke-width="2" clip-path="url(#clipPath2)"/>
      <path d="M404.2 -29.738 L417.7 -24.113 L414.325 -29.738 L417.7 -35.363 Z" stroke-width="2" clip-path="url(#clipPath2)" stroke="none"/>
      <path fill="none" d="M309.2 -68.738 L309.2 -45.4322 L322.262 -29.738 L365.2 -29.738" stroke-width="2" clip-path="url(#clipPath2)"/>
      <path d="M374.2 -29.738 L360.7 -35.363 L364.075 -29.738 L360.7 -24.113 Z" stroke-width="2" clip-path="url(#clipPath2)" stroke="none"/>
      <path fill="none" d="M389.2 -14.738 L389.2 24.2151" stroke-width="2" clip-path="url(#clipPath2)"/>
      <path d="M389.2 33.2151 L394.825 19.7151 L389.2 23.0901 L383.575 19.7151 Z" stroke-width="2" clip-path="url(#clipPath2)" stroke="none"/>
      <path fill="none" d="M229.1552 -212.738 L217.738 -212.738 L214.2 -209.2 L214.2 213.7199 L214.2 235.7819 L380.1573 235.7819" stroke-width="2" clip-path="url(#clipPath2)" stroke="navy"/>
      <path fill="navy" d="M389.1573 235.7819 L375.6573 230.1569 L379.0323 235.7819 L375.6573 241.4069 Z" stroke-width="2" clip-path="url(#clipPath2)" stroke="none"/>
      <path fill="none" d="M469.2 247.7819 L469.2 258.7429" stroke-width="2" clip-path="url(#clipPath2)"/>
      <path d="M469.2 267.7429 L474.825 254.2429 L469.2 257.6179 L463.575 254.2429 Z" stroke-width="2" clip-path="url(#clipPath2)" stroke="none"/>
      <path fill="none" d="M389.2 145.262 L389.2 172.2 L404.262 184.7819 L445.2 184.7819" stroke-width="2" clip-path="url(#clipPath2)"/>
      <path d="M454.2 184.7819 L440.7 179.1569 L444.075 184.7819 L440.7 190.4069 Z" stroke-width="2" clip-path="url(#clipPath2)" stroke="none"/>
      <path fill="none" d="M389.2 -14.738 L389.2 6.1988 L503.2 6.1988 L503.2 184.1199 L493.1991 184.1199" stroke-width="2" clip-path="url(#clipPath2)"/>
      <path d="M484.1991 184.1199 L497.6991 189.7449 L494.3241 184.1199 L497.6991 178.4949 Z" stroke-width="2" clip-path="url(#clipPath2)" stroke="none"/>
      <path fill="none" d="M469.2 199.7819 L469.2 214.7819" stroke-width="2" clip-path="url(#clipPath2)"/>
      <path d="M469.2 223.7819 L474.825 210.2819 L469.2 213.6569 L463.575 210.2819 Z" stroke-width="2" clip-path="url(#clipPath2)" stroke="none"/>
      <path fill="none" stroke-dasharray="6,2" d="M518.6879 -39.6418 L518.5217 -2.4726" clip-path="url(#clipPath2)"/>
    </g>
  </g>
</svg>
